<?xml version="1.0" standalone="no"?>
<!DOCTYPE svg PUBLIC "-//W3C//DTD SVG 20010904//EN"
 "http://www.w3.org/TR/2001/REC-SVG-20010904/DTD/svg10.dtd">
<svg version="1.0" xmlns="http://www.w3.org/2000/svg"
 width="290.000000pt" height="290.000000pt" viewBox="0 0 290.000000 290.000000"
 preserveAspectRatio="xMidYMid meet">
<metadata>
Created by potrace 1.11, written by Peter Selinger 2001-2013
</metadata>
<g transform="translate(0.000000,290.000000) scale(0.100000,-0.100000)"
fill="#000000" stroke="none">
<path d="M882 2208 c103 -156 164 -261 179 -304 33 -93 20 -225 -30 -304 -9
-14 -47 -67 -85 -119 -76 -104 -76 -112 -15 -143 38 -20 94 -23 133 -8 14 5
67 48 118 95 51 48 111 96 133 107 75 39 178 24 244 -36 12 -11 144 -193 292
-403 287 -406 294 -413 374 -413 42 0 105 26 105 44 0 10 -449 962 -581 1231
-44 89 -122 173 -198 214 -97 51 -165 61 -440 61 l-243 0 14 -22z"/>
<path d="M1362 1477 c-24 -29 -281 -580 -287 -616 -5 -29 -1 -51 13 -83 23
-50 88 -117 101 -102 5 5 93 151 195 324 168 283 187 319 183 351 -3 20 -15
51 -28 68 -41 55 -150 91 -177 58z"/>
</g>
</svg>
